<svg width="24" height="24" viewBox="0 0 24 24" fill="none" xmlns="http://www.w3.org/2000/svg">
<mask id="mask0_2033_92" style="mask-type:alpha" maskUnits="userSpaceOnUse" x="0" y="0" width="24" height="24">
<rect width="24" height="24" fill="#D9D9D9"/>
</mask>
<g mask="url(#mask0_2033_92)">
<path d="M12.0001 15.5501C11.8001 15.5501 11.6001 15.5084 11.4001 15.4251C11.2001 15.3418 11.0251 15.2251 10.8751 15.0751L6.3001 10.5001C6.0001 10.2001 5.8501 9.83343 5.8501 9.4001C5.8501 8.96676 6.0001 8.6001 6.3001 8.3001C6.6001 8.0001 6.96676 7.8501 7.4001 7.8501C7.83343 7.8501 8.2001 8.0001 8.5001 8.3001L12.0001 11.8001L15.5001 8.3001C15.8001 8.0001 16.1668 7.8501 16.6001 7.8501C17.0334 7.8501 17.4001 8.0001 17.7001 8.3001C18.0001 8.6001 18.1501 8.96676 18.1501 9.4001C18.1501 9.83343 18.0001 10.2001 17.7001 10.5001L13.1251 15.0751C12.9751 15.2251 12.8001 15.3418 12.6001 15.4251C12.4001 15.5084 12.2001 15.5501 12.0001 15.5501Z" fill="#003174"/>
</g>
</svg>
