<svg width="24" height="25" viewBox="0 0 24 25" fill="none" xmlns="http://www.w3.org/2000/svg">
<g id="check">
<mask id="mask0_2025_75" style="mask-type:alpha" maskUnits="userSpaceOnUse" x="0" y="0" width="24" height="25">
<rect id="Bounding box" y="0.5" width="24" height="24" />
</mask>
<g mask="url(#mask0_2025_75)">
<path id="check_2" d="M9.5502 14.7998L17.5752 6.7748C17.8919 6.45814 18.2669 6.2998 18.7002 6.2998C19.1335 6.2998 19.5085 6.45814 19.8252 6.7748C20.1419 7.09147 20.3002 7.46647 20.3002 7.8998C20.3002 8.33314 20.1419 8.70814 19.8252 9.0248L10.6752 18.1748C10.3585 18.4915 9.98353 18.6498 9.5502 18.6498C9.11686 18.6498 8.74186 18.4915 8.4252 18.1748L4.1752 13.9248C3.85853 13.6081 3.7002 13.2331 3.7002 12.7998C3.7002 12.3665 3.85853 11.9915 4.1752 11.6748C4.49186 11.3581 4.86686 11.1998 5.3002 11.1998C5.73353 11.1998 6.10853 11.3581 6.4252 11.6748L9.5502 14.7998Z" fill="currentColor"/>
</g>
</g>
</svg>
